<svg xmlns="http://www.w3.org/2000/svg" stroke-width=".5" viewBox="0 0 1008 1058"><path d="M251.01 141.25Q254 141 257 141L748 141Q751 141 753.99 141.28L769.01 142.72Q772 143 774.92 143.69L786.08 146.31Q789 147 791.81 148.05L802.19 151.95Q805 153 807.65 154.41L817.35 159.59Q820 161 822.44 162.74L831.56 169.26Q834 171 836.21 173.03L843.79 179.97Q846 182 848.02 184.22L853.98 190.78Q856 193 857.72 195.46L861.28 200.54Q863 203 864.47 205.61L870.53 216.39Q872 219 873.14 221.77L877.86 233.23Q879 236 879.69 238.92L883.31 254.08Q884 257 884.26 259.99L885.74 277.01Q886 280 886 283L886 748Q886 751 885.95 754L885.05 806Q885 809 884.41 811.94L881.59 826.06Q881 829 880.05 831.85L875.95 844.15Q875 847 873.61 849.66L865.39 865.34Q864 868 862.2 870.4L856.8 877.6Q855 880 852.99 882.23L848.01 887.77Q846 890 843.88 892.12L840.12 895.88Q838 898 835.62 899.83L827.38 906.17Q825 908 822.39 909.47L811.61 915.53Q809 917 806.25 918.2L795.75 922.8Q793 924 790.11 924.8L777.89 928.2Q775 929 772.03 929.46L764.97 930.54Q762 931 759 931L250 931Q247 931 244.04 930.51L231.96 928.49Q229 928 226.12 927.15L214.88 923.85Q212 923 209.29 921.71L193.71 914.29Q191 913 188.53 911.29L180.47 905.71Q178 904 175.68 902.1L169.32 896.9Q167 895 164.88 892.88L158.12 886.12Q156 884 154.2 881.6L148.8 874.4Q147 872 145.43 869.45L140.57 861.55Q139 859 137.66 856.32L133.34 847.68Q132 845 131.14 842.13L126.86 827.87Q126 825 125.51 822.04L123.49 809.96Q123 807 122.92 804L122.08 773Q122 770 122 767L122 406Q122 403 122.02 400L122.98 267Q123 264 123.59 261.06L127.41 241.94Q128 239 129.11 236.21L134.89 221.79Q136 219 137.47 216.39L143.53 205.61Q145 203 146.83 200.62L153.17 192.38Q155 190 157.03 187.8L164.97 179.2Q167 177 169.32 175.1L175.68 169.9Q178 168 180.52 166.38L189.48 160.62Q192 159 194.68 157.66L205.32 152.34Q208 151 210.85 150.05L220.15 146.95Q223 146 225.94 145.38L239.06 142.62Q242 142 244.99 141.75Z" fill="#050d1a" stroke="#050d1a"/><path d="M492.01 326.18Q495 326 498 326L506 326Q509 326 511.99 326.26L529.01 327.74Q532 328 534.95 328.56L550.05 331.44Q553 332 555.85 332.95L577.15 340.05Q580 341 582.79 342.11L597.21 347.89Q600 349 602.99 349.3L608.58 349.86Q610 350 611.28 349.36L612.72 348.64Q614 348 614.76 346.79L617.86 341.82Q619 340 619.96 338.08L621.8 334.4Q622 334 622.32 333.68L622.68 333.32Q623 333 623.45 333L631.28 333Q632 333 632.64 333.32L633.36 333.68Q634 334 634.14 334.7L652.39 423.06Q653 426 653.63 428.93L658.66 452.4Q659 454 658.68 455.6L658.32 457.4Q658 459 656.41 459.35L650.87 460.58Q649 461 647.08 461L644.92 461Q643 461 642.21 459.25L634.24 441.73Q633 439 631.44 436.44L623.56 423.56Q622 421 620.17 418.62L613.83 410.38Q612 408 609.97 405.79L603.03 398.21Q601 396 598.88 393.88L589.12 384.12Q587 382 584.6 380.2L573.4 371.8Q571 370 568.39 368.53L557.61 362.47Q555 361 552.24 359.82L543.76 356.18Q541 355 538.1 354.24L524.19 350.58Q522 350 519.76 349.68L517.24 349.32Q515 349 512.74 349L487 349Q484 349 481.05 349.55L470.95 351.45Q468 352 465.19 353.05L454.81 356.95Q452 358 449.32 359.34L442.68 362.66Q440 364 437.6 365.8L430.4 371.2Q428 373 425.88 375.12L415.12 385.88Q413 388 411.37 390.52L403.63 402.48Q402 405 400.66 407.68L395.34 418.32Q394 421 392.96 423.82L388.04 437.18Q387 440 386.24 442.9L382.76 456.1Q382 459 381.59 461.97L379.41 478.03Q379 481 378.8 483.99L378.2 493.01Q378 496 378 499L378 513Q378 516 378.26 518.99L379.74 536.01Q380 539 380.54 541.95L383.46 558.05Q384 561 384.81 563.89L390.19 583.11Q391 586 392.16 588.76L397.84 602.24Q399 605 400.39 607.66L408.61 623.34Q410 626 411.73 628.45L420.27 640.55Q422 643 424.01 645.23L428.99 650.77Q431 653 433.12 655.12L442.88 664.88Q445 667 447.42 668.77L457.58 676.23Q460 678 462.66 679.39L478.34 687.61Q481 689 483.85 689.95L496.15 694.05Q499 695 501.96 695.49L520.04 698.51Q523 699 526 699L545 699Q548 699 550.97 698.55L565.03 696.45Q568 696 570.88 695.18L586.12 690.82Q589 690 591.71 688.71L607.29 681.29Q610 680 612.47 678.29L620.53 672.71Q623 671 625.34 669.13L630.66 664.87Q633 663 635.23 660.99L640.77 656.01Q643 654 645.12 651.88L647.88 649.12Q650 647 651.87 644.66L656.98 638.27Q658 637 659.6 637.32L661.4 637.68Q663 638 664.22 639.08L671.01 645.12Q672 646 671.68 647.28L671.32 648.72Q671 650 670.21 651.06L663.8 659.6Q662 662 660.05 664.28L651.95 673.72Q650 676 647.88 678.12L635.12 690.88Q633 693 630.62 694.82L618.38 704.18Q616 706 613.43 707.54L603.57 713.46Q601 715 598.32 716.34L587.68 721.66Q585 723 582.19 724.05L571.81 727.95Q569 729 566.11 729.8L553.89 733.2Q551 734 548.04 734.49L529.96 737.51Q527 738 524.01 738.23L516.99 738.77Q514 739 511 739L498 739Q495 739 492.01 738.73L475.99 737.27Q473 737 470.05 736.43L449.95 732.57Q447 732 444.13 731.14L429.87 726.86Q427 726 424.26 724.78L411.74 719.22Q409 718 406.35 716.6L394.65 710.4Q392 709 389.55 707.27L377.45 698.73Q375 697 372.72 695.05L363.28 686.95Q361 685 358.88 682.88L351.12 675.12Q349 673 347.18 670.62L337.82 658.38Q336 656 334.44 653.44L326.56 640.56Q325 638 323.71 635.29L315.29 617.71Q314 615 313.05 612.15L307.95 596.85Q307 594 306.34 591.07L302.66 574.93Q302 572 301.63 569.02L300.37 558.98Q300 556 299.83 553L299.17 541Q299 538 299 535L299 528Q299 525 299.24 522.01L300.76 502.99Q301 500 301.63 497.07L306.37 474.93Q307 472 307.99 469.17L314.01 451.83Q315 449 316.3 446.3L325.7 426.7Q327 424 328.62 421.48L334.38 412.52Q336 410 337.8 407.6L343.2 400.4Q345 398 347.01 395.77L351.99 390.23Q354 388 356.12 385.88L368.88 373.12Q371 371 373.42 369.23L383.58 361.77Q386 360 388.55 358.43L396.45 353.57Q399 352 401.68 350.66L412.32 345.34Q415 344 417.79 342.89L432.21 337.11Q435 336 437.89 335.2L450.11 331.8Q453 331 455.96 330.53L475.04 327.47Q478 327 480.99 326.82Z" fill="#fff" stroke="#fff"/><path d="M740 223h1l9 36 7 26v2l9 2 42 14 2 1v2l-43 15-9 3-3 8-11 43-3 12-3-1-16-62-38-13-15-5v-2l51-17 2-1 16-61Z" fill="#deb848" stroke="#deb848"/></svg>